<svg width="1254" height="462" viewBox="0 0 1254 462" fill="none" xmlns="http://www.w3.org/2000/svg">
<rect x="64.8013" y="423.872" width="64.2908" height="308.596" rx="32.1454" transform="rotate(180 64.8013 423.872)" fill="#22B554"/>
<rect x="251.245" y="38.1274" width="64.2908" height="308.596" rx="32.1454" fill="#22B554"/>
<rect x="148.379" y="269.574" width="64.2908" height="154.298" rx="32.1454" transform="rotate(180 148.379 269.574)" fill="#F62F2F"/>
<rect x="167.667" y="192.425" width="64.2908" height="154.298" rx="32.1454" fill="#F62F2F"/>
<path d="M422.567 51.7518V23.5153H555.649V51.7518H505.888V189H472.328V51.7518H422.567ZM579.492 70.2676V89.2463H580.186C583.889 82.3029 587.978 77.211 592.453 73.9708C596.927 70.5762 602.559 68.8789 609.348 68.8789C612.589 68.8789 615.057 69.1875 616.755 69.8047V97.3469H616.06C605.414 96.2669 596.85 98.5813 590.37 104.29C583.889 109.999 580.649 118.949 580.649 131.138V189H549.172V70.2676H579.492ZM697.052 189C695.509 186.994 694.275 182.597 693.349 175.808H692.886C689.492 180.899 685.171 184.834 679.925 187.611C674.679 190.389 667.35 191.777 657.938 191.777C645.44 191.777 635.41 188.614 627.85 182.288C620.289 175.962 616.509 167.013 616.509 155.44C616.509 143.405 620.675 134.61 629.007 129.055C637.339 123.346 649.066 119.412 664.187 117.251C675.296 115.708 682.857 114.165 686.869 112.622C690.88 110.925 692.886 107.994 692.886 103.827C692.886 99.5071 691.189 96.1126 687.794 93.6438C684.4 91.0207 679.462 89.7092 672.982 89.7092C658.632 89.7092 650.994 95.2639 650.069 106.373H622.063C622.526 95.1096 627.078 85.7746 635.719 78.3683C644.36 70.962 656.858 67.2588 673.213 67.2588C706.542 67.2588 723.206 81.84 723.206 111.002V171.41C723.206 180.359 724.595 185.837 727.372 187.843V189H697.052ZM665.576 169.79C674.216 169.79 681.005 167.553 685.943 163.078C691.035 158.603 693.581 153.28 693.581 147.108V129.287C690.186 131.293 682.857 133.607 671.593 136.23C662.644 138.236 656.318 140.55 652.615 143.173C648.911 145.642 647.06 149.5 647.06 154.746C647.06 164.775 653.232 169.79 665.576 169.79ZM783.026 192.472C768.059 192.472 755.947 186.84 746.689 175.576C737.431 164.158 732.802 148.882 732.802 129.75C732.802 111.234 737.508 96.1897 746.92 84.6173C756.487 72.8907 768.676 67.0274 783.489 67.0274C798.301 67.0274 809.488 72.8907 817.049 84.6173H817.743V23.5153H849.22V189H818.9V173.493H818.437C810.722 186.145 798.919 192.472 783.026 192.472ZM789.969 166.087C799.227 166.087 806.248 162.924 811.031 156.597C815.969 150.271 818.437 141.553 818.437 130.444C818.437 105.139 809.257 92.4865 790.895 92.4865C782.409 92.4865 775.928 95.8811 771.454 102.67C766.979 109.459 764.742 118.486 764.742 129.75C764.742 141.322 766.902 150.271 771.222 156.597C775.697 162.924 781.946 166.087 789.969 166.087ZM865.052 189V70.2676H896.529V189H865.052ZM865.052 51.7518V23.5153H896.529V51.7518H865.052ZM942.965 70.2676V86.4689H943.659C951.837 73.5079 963.564 67.0274 978.839 67.0274C991.029 67.0274 1000.9 71.1934 1008.46 79.5255C1016.03 87.7033 1019.81 98.3499 1019.81 111.465V189H988.329V116.094C988.329 109.614 986.477 104.368 982.774 100.356C979.225 96.344 974.21 94.3381 967.73 94.3381C960.786 94.3381 955 96.884 950.371 101.976C945.897 107.068 943.659 113.625 943.659 121.649V189H912.182V70.2676H942.965ZM1086.89 229.503C1070.84 229.503 1057.95 226.263 1048.23 219.782C1038.67 213.302 1033.04 204.198 1031.34 192.472H1062.58C1065.67 201.267 1073.62 205.664 1086.42 205.664C1104.01 205.664 1112.81 197.409 1112.81 180.899V167.938H1112.11C1103.94 177.196 1093.6 181.825 1081.1 181.825C1067.06 181.825 1054.79 176.656 1044.3 166.318C1033.96 155.98 1028.79 142.248 1028.79 125.121C1028.79 107.531 1033.58 93.4895 1043.14 82.9972C1052.71 72.3507 1065.05 67.0274 1080.17 67.0274C1094.52 67.0274 1105.48 72.2735 1113.04 82.7658H1113.5V70.2676H1143.82V179.974C1143.82 195.403 1139.12 207.439 1129.7 216.079C1120.14 225.029 1105.86 229.503 1086.89 229.503ZM1086.42 156.597C1095.83 156.597 1102.86 153.589 1107.48 147.571C1112.11 141.553 1114.43 133.838 1114.43 124.426C1114.43 115.168 1111.96 107.531 1107.02 101.513C1102.24 95.3411 1095.29 92.2551 1086.19 92.2551C1078.17 92.2551 1071.69 95.1868 1066.75 101.05C1061.97 106.913 1059.57 114.783 1059.57 124.658C1059.57 134.687 1061.97 142.556 1066.75 148.265C1071.69 153.82 1078.24 156.597 1086.42 156.597ZM495.241 423.703C472.868 423.703 455.51 418.997 443.166 409.585C430.822 400.018 424.341 386.44 423.724 368.85H456.59C457.67 378.725 461.141 385.823 467.005 390.143C473.022 394.464 481.972 396.624 493.853 396.624C503.265 396.624 510.98 394.927 516.997 391.532C523.015 387.983 526.024 382.583 526.024 375.331C526.024 372.708 525.638 370.393 524.867 368.387C524.249 366.227 522.861 364.376 520.701 362.833C518.54 361.135 516.689 359.824 515.146 358.898C513.603 357.818 510.748 356.738 506.582 355.658C502.416 354.423 499.253 353.575 497.093 353.112C494.933 352.495 490.921 351.492 485.058 350.103C477.96 348.406 472.097 346.94 467.468 345.705C462.993 344.471 457.978 342.542 452.424 339.919C447.023 337.296 442.703 334.442 439.463 331.356C436.377 328.115 433.754 323.949 431.593 318.858C429.433 313.611 428.353 307.671 428.353 301.036C428.353 285.143 434.139 272.954 445.712 264.468C457.438 255.827 472.791 251.506 491.77 251.506C510.594 251.506 525.638 255.981 536.902 264.93C548.166 273.88 554.415 286.609 555.649 303.119H523.478C522.552 295.096 519.158 288.924 513.294 284.603C507.585 280.283 500.333 278.123 491.538 278.123C482.435 278.123 475.183 279.897 469.782 283.446C464.382 286.995 461.681 291.701 461.681 297.564C461.681 303.891 464.305 308.52 469.551 311.451C474.951 314.383 484.363 317.315 497.787 320.246C505.811 321.944 512.368 323.564 517.46 325.107C522.552 326.495 528.03 328.578 533.893 331.356C539.911 333.979 544.54 336.91 547.78 340.151C551.174 343.391 553.952 347.711 556.112 353.112C558.426 358.358 559.584 364.453 559.584 371.396C559.584 387.752 553.643 400.558 541.762 409.816C529.881 419.074 514.374 423.703 495.241 423.703ZM564.379 322.098V301.268H580.812V264.236H611.594V301.268H631.961V322.098H611.594V385.051C611.594 392.921 615.529 396.855 623.398 396.855L632.656 396.624V419.769C627.873 420.077 621.315 420.231 612.983 420.231C603.879 420.231 596.241 418.071 590.07 413.751C583.898 409.276 580.812 401.947 580.812 391.763V322.098H564.379ZM673.861 301.268V320.246H674.555C678.258 313.303 682.347 308.211 686.822 304.971C691.296 301.576 696.928 299.879 703.717 299.879C706.958 299.879 709.426 300.188 711.124 300.805V328.347H710.429C699.783 327.267 691.219 329.581 684.739 335.29C678.258 340.999 675.018 349.949 675.018 362.138V420H643.541V301.268H673.861ZM791.421 420C789.878 417.994 788.644 413.597 787.718 406.808H787.255C783.861 411.899 779.54 415.834 774.294 418.611C769.048 421.389 761.719 422.777 752.307 422.777C739.809 422.777 729.779 419.614 722.219 413.288C714.658 406.962 710.878 398.013 710.878 386.44C710.878 374.405 715.044 365.61 723.376 360.055C731.708 354.346 743.435 350.412 758.556 348.251C769.665 346.708 777.226 345.165 781.238 343.622C785.249 341.925 787.255 338.994 787.255 334.827C787.255 330.507 785.558 327.113 782.163 324.644C778.769 322.021 773.831 320.709 767.351 320.709C753.001 320.709 745.363 326.264 744.438 337.373H716.432C716.895 326.11 721.447 316.775 730.088 309.368C738.728 301.962 751.227 298.259 767.582 298.259C800.911 298.259 817.575 312.84 817.575 342.002V402.41C817.575 411.359 818.963 416.837 821.741 418.843V420H791.421ZM759.944 400.79C768.585 400.79 775.374 398.553 780.312 394.078C785.404 389.603 787.95 384.28 787.95 378.108V360.287C784.555 362.293 777.226 364.607 765.962 367.23C757.013 369.236 750.687 371.55 746.983 374.173C743.28 376.642 741.429 380.5 741.429 385.746C741.429 395.775 747.601 400.79 759.944 400.79ZM823.753 322.098V301.268H840.186V264.236H870.969V301.268H891.336V322.098H870.969V385.051C870.969 392.921 874.903 396.855 882.772 396.855L892.03 396.624V419.769C887.247 420.077 880.689 420.231 872.357 420.231C863.254 420.231 855.616 418.071 849.444 413.751C843.272 409.276 840.186 401.947 840.186 391.763V322.098H823.753ZM957.564 423.472C938.431 423.472 923.387 417.608 912.432 405.882C901.477 394.001 895.999 378.88 895.999 360.518C895.999 342.774 901.477 327.961 912.432 316.08C923.387 304.045 937.428 298.027 954.555 298.027C973.225 298.027 987.652 304.508 997.836 317.469C1008.02 330.43 1013.11 347.788 1013.11 369.545H927.013C928.248 378.957 931.411 386.286 936.502 391.532C941.594 396.624 948.538 399.17 957.333 399.17C968.905 399.17 976.543 394.309 980.246 384.589H1011.26C1008.95 395.698 1003.08 404.956 993.67 412.362C984.258 419.769 972.222 423.472 957.564 423.472ZM955.018 322.329C939.743 322.329 930.562 330.816 927.476 347.788H980.246C979.783 340.228 977.237 334.133 972.608 329.504C967.979 324.721 962.116 322.329 955.018 322.329ZM1075.36 460.503C1059.31 460.503 1046.43 457.263 1036.71 450.782C1027.14 444.302 1021.51 435.198 1019.81 423.472H1051.06C1054.14 432.267 1062.09 436.664 1074.9 436.664C1092.49 436.664 1101.28 428.409 1101.28 411.899V398.938H1100.59C1092.41 408.196 1082.07 412.825 1069.57 412.825C1055.53 412.825 1043.26 407.656 1032.77 397.318C1022.43 386.98 1017.26 373.248 1017.26 356.121C1017.26 338.531 1022.05 324.489 1031.61 313.997C1041.18 303.351 1053.52 298.027 1068.65 298.027C1083 298.027 1093.95 303.274 1101.51 313.766H1101.97V301.268H1132.29V410.974C1132.29 426.403 1127.59 438.439 1118.18 447.079C1108.61 456.029 1094.34 460.503 1075.36 460.503ZM1074.9 387.597C1084.31 387.597 1091.33 384.589 1095.96 378.571C1100.59 372.553 1102.9 364.838 1102.9 355.426C1102.9 346.168 1100.43 338.531 1095.49 332.513C1090.71 326.341 1083.77 323.255 1074.66 323.255C1066.64 323.255 1060.16 326.187 1055.22 332.05C1050.44 337.913 1048.05 345.783 1048.05 355.658C1048.05 365.687 1050.44 373.556 1055.22 379.265C1060.16 384.82 1066.72 387.597 1074.9 387.597ZM1150.48 458.883V434.118H1161.59C1173.32 434.118 1179.18 428.718 1179.18 417.917C1179.18 412.671 1176.17 401.947 1170.15 385.746L1138.21 301.268H1171.31L1188.9 354.732L1196.54 380.654H1197C1199.16 370.625 1201.47 361.984 1203.94 354.732L1220.61 301.268H1252.32L1210.89 423.009C1206.26 436.587 1201.01 445.922 1195.15 451.014C1189.44 456.26 1180.72 458.883 1168.99 458.883H1150.48Z" fill="#0F0F0F"/>
</svg>
