<svg width="2659" height="1026" viewBox="0 0 2659 1026" fill="none" xmlns="http://www.w3.org/2000/svg">
<rect width="2657.89" height="1025.75" transform="translate(0.273438 0.127411)" fill="#FDF8F2"/>
<rect x="384.564" y="705.872" width="64.2908" height="308.596" rx="32.1454" transform="rotate(180 384.564 705.872)" fill="#22B554"/>
<rect x="571.008" y="320.127" width="64.2908" height="308.596" rx="32.1454" fill="#22B554"/>
<rect x="468.143" y="551.574" width="64.2908" height="154.298" rx="32.1454" transform="rotate(180 468.143 551.574)" fill="#F62F2F"/>
<rect x="487.43" y="474.426" width="64.2908" height="154.298" rx="32.1454" fill="#F62F2F"/>
<path d="M742.572 449.252V421.015H875.654V449.252H825.893V586.5H792.333V449.252H742.572ZM899.497 467.768V486.746H900.191C903.894 479.803 907.983 474.711 912.458 471.471C916.932 468.076 922.564 466.379 929.353 466.379C932.594 466.379 935.062 466.688 936.76 467.305V494.847H936.065C925.419 493.767 916.855 496.081 910.375 501.79C903.894 507.499 900.654 516.449 900.654 528.638V586.5H869.177V467.768H899.497ZM1017.06 586.5C1015.51 584.494 1014.28 580.097 1013.35 573.308H1012.89C1009.5 578.399 1005.18 582.334 999.93 585.111C994.684 587.889 987.355 589.277 977.943 589.277C965.445 589.277 955.415 586.114 947.855 579.788C940.294 573.462 936.514 564.513 936.514 552.94C936.514 540.905 940.68 532.11 949.012 526.555C957.344 520.846 969.071 516.912 984.192 514.751C995.301 513.208 1002.86 511.665 1006.87 510.122C1010.89 508.425 1012.89 505.494 1012.89 501.327C1012.89 497.007 1011.19 493.613 1007.8 491.144C1004.4 488.521 999.467 487.209 992.987 487.209C978.637 487.209 970.999 492.764 970.074 503.873H942.068C942.531 492.61 947.083 483.275 955.724 475.868C964.365 468.462 976.863 464.759 993.218 464.759C1026.55 464.759 1043.21 479.34 1043.21 508.502V568.91C1043.21 577.859 1044.6 583.337 1047.38 585.343V586.5H1017.06ZM985.58 567.29C994.221 567.29 1001.01 565.053 1005.95 560.578C1011.04 556.103 1013.59 550.78 1013.59 544.608V526.787C1010.19 528.793 1002.86 531.107 991.598 533.73C982.649 535.736 976.323 538.05 972.619 540.673C968.916 543.142 967.065 547 967.065 552.246C967.065 562.275 973.237 567.29 985.58 567.29ZM1103.03 589.972C1088.06 589.972 1075.95 584.34 1066.69 573.076C1057.44 561.658 1052.81 546.383 1052.81 527.25C1052.81 508.734 1057.51 493.69 1066.93 482.117C1076.49 470.391 1088.68 464.527 1103.49 464.527C1118.31 464.527 1129.49 470.391 1137.05 482.117H1137.75V421.015H1169.22V586.5H1138.91V570.993H1138.44C1130.73 583.646 1118.92 589.972 1103.03 589.972ZM1109.97 563.587C1119.23 563.587 1126.25 560.424 1131.04 554.097C1135.97 547.771 1138.44 539.053 1138.44 527.944C1138.44 502.639 1129.26 489.987 1110.9 489.987C1102.41 489.987 1095.93 493.381 1091.46 500.17C1086.98 506.959 1084.75 515.986 1084.75 527.25C1084.75 538.822 1086.91 547.771 1091.23 554.097C1095.7 560.424 1101.95 563.587 1109.97 563.587ZM1185.06 586.5V467.768H1216.53V586.5H1185.06ZM1185.06 449.252V421.015H1216.53V449.252H1185.06ZM1262.97 467.768V483.969H1263.66C1271.84 471.008 1283.57 464.527 1298.84 464.527C1311.03 464.527 1320.91 468.693 1328.47 477.026C1336.03 485.203 1339.81 495.85 1339.81 508.965V586.5H1308.33V513.594C1308.33 507.114 1306.48 501.868 1302.78 497.856C1299.23 493.844 1294.22 491.838 1287.73 491.838C1280.79 491.838 1275.01 494.384 1270.38 499.476C1265.9 504.568 1263.66 511.125 1263.66 519.149V586.5H1232.19V467.768H1262.97ZM1406.89 627.003C1390.84 627.003 1377.96 623.763 1368.24 617.282C1358.67 610.802 1353.04 601.698 1351.34 589.972H1382.59C1385.67 598.767 1393.62 603.164 1406.43 603.164C1424.02 603.164 1432.81 594.909 1432.81 578.399V565.438H1432.12C1423.94 574.696 1413.6 579.325 1401.1 579.325C1387.06 579.325 1374.8 574.156 1364.3 563.818C1353.97 553.48 1348.8 539.748 1348.8 522.621C1348.8 505.031 1353.58 490.99 1363.15 480.497C1372.71 469.851 1385.06 464.527 1400.18 464.527C1414.53 464.527 1425.48 469.774 1433.04 480.266H1433.51V467.768H1463.83V577.474C1463.83 592.903 1459.12 604.939 1449.71 613.579C1440.14 622.529 1425.87 627.003 1406.89 627.003ZM1406.43 554.097C1415.84 554.097 1422.86 551.089 1427.49 545.071C1432.12 539.053 1434.43 531.338 1434.43 521.926C1434.43 512.668 1431.96 505.031 1427.03 499.013C1422.24 492.841 1415.3 489.755 1406.2 489.755C1398.17 489.755 1391.69 492.687 1386.75 498.55C1381.97 504.413 1379.58 512.283 1379.58 522.158C1379.58 532.187 1381.97 540.056 1386.75 545.765C1391.69 551.32 1398.25 554.097 1406.43 554.097ZM1580.37 590.203C1558 590.203 1540.64 585.497 1528.29 576.085C1515.95 566.518 1509.47 552.94 1508.85 535.35H1541.72C1542.8 545.225 1546.27 552.323 1552.13 556.643C1558.15 560.964 1567.1 563.124 1578.98 563.124C1588.39 563.124 1596.11 561.427 1602.12 558.032C1608.14 554.483 1611.15 549.083 1611.15 541.831C1611.15 539.208 1610.77 536.893 1609.99 534.887C1609.38 532.727 1607.99 530.876 1605.83 529.333C1603.67 527.635 1601.82 526.324 1600.27 525.398C1598.73 524.318 1595.88 523.238 1591.71 522.158C1587.54 520.923 1584.38 520.075 1582.22 519.612C1580.06 518.995 1576.05 517.992 1570.19 516.603C1563.09 514.906 1557.22 513.44 1552.6 512.205C1548.12 510.971 1543.11 509.042 1537.55 506.419C1532.15 503.796 1527.83 500.942 1524.59 497.856C1521.5 494.616 1518.88 490.449 1516.72 485.358C1514.56 480.111 1513.48 474.171 1513.48 467.536C1513.48 451.643 1519.27 439.454 1530.84 430.968C1542.57 422.327 1557.92 418.007 1576.9 418.007C1595.72 418.007 1610.77 422.481 1622.03 431.43C1633.29 440.38 1639.54 453.109 1640.78 469.619H1608.61C1607.68 461.596 1604.29 455.424 1598.42 451.103C1592.71 446.783 1585.46 444.623 1576.67 444.623C1567.56 444.623 1560.31 446.397 1554.91 449.946C1549.51 453.495 1546.81 458.201 1546.81 464.064C1546.81 470.391 1549.43 475.02 1554.68 477.951C1560.08 480.883 1569.49 483.815 1582.91 486.746C1590.94 488.444 1597.5 490.064 1602.59 491.607C1607.68 492.995 1613.16 495.078 1619.02 497.856C1625.04 500.479 1629.67 503.41 1632.91 506.651C1636.3 509.891 1639.08 514.211 1641.24 519.612C1643.55 524.858 1644.71 530.953 1644.71 537.896C1644.71 554.252 1638.77 567.058 1626.89 576.316C1615.01 585.574 1599.5 590.203 1580.37 590.203ZM1649.51 488.598V467.768H1665.94V430.736H1696.72V467.768H1717.09V488.598H1696.72V551.551C1696.72 559.421 1700.66 563.355 1708.53 563.355L1717.78 563.124V586.269C1713 586.577 1706.44 586.731 1698.11 586.731C1689.01 586.731 1681.37 584.571 1675.2 580.251C1669.03 575.776 1665.94 568.447 1665.94 558.263V488.598H1649.51ZM1758.99 467.768V486.746H1759.68C1763.39 479.803 1767.47 474.711 1771.95 471.471C1776.42 468.076 1782.06 466.379 1788.84 466.379C1792.09 466.379 1794.55 466.688 1796.25 467.305V494.847H1795.56C1784.91 493.767 1776.35 496.081 1769.87 501.79C1763.39 507.499 1760.15 516.449 1760.15 528.638V586.5H1728.67V467.768H1758.99ZM1876.55 586.5C1875.01 584.494 1873.77 580.097 1872.85 573.308H1872.38C1868.99 578.399 1864.67 582.334 1859.42 585.111C1854.18 587.889 1846.85 589.277 1837.43 589.277C1824.94 589.277 1814.91 586.114 1807.35 579.788C1799.79 573.462 1796.01 564.513 1796.01 552.94C1796.01 540.905 1800.17 532.11 1808.5 526.555C1816.84 520.846 1828.56 516.912 1843.68 514.751C1854.79 513.208 1862.35 511.665 1866.37 510.122C1870.38 508.425 1872.38 505.494 1872.38 501.327C1872.38 497.007 1870.69 493.613 1867.29 491.144C1863.9 488.521 1858.96 487.209 1852.48 487.209C1838.13 487.209 1830.49 492.764 1829.56 503.873H1801.56C1802.02 492.61 1806.57 483.275 1815.22 475.868C1823.86 468.462 1836.35 464.759 1852.71 464.759C1886.04 464.759 1902.7 479.34 1902.7 508.502V568.91C1902.7 577.859 1904.09 583.337 1906.87 585.343V586.5H1876.55ZM1845.07 567.29C1853.71 567.29 1860.5 565.053 1865.44 560.578C1870.53 556.103 1873.08 550.78 1873.08 544.608V526.787C1869.68 528.793 1862.35 531.107 1851.09 533.73C1842.14 535.736 1835.81 538.05 1832.11 540.673C1828.41 543.142 1826.56 547 1826.56 552.246C1826.56 562.275 1832.73 567.29 1845.07 567.29ZM1908.88 488.598V467.768H1925.31V430.736H1956.1V467.768H1976.46V488.598H1956.1V551.551C1956.1 559.421 1960.03 563.355 1967.9 563.355L1977.16 563.124V586.269C1972.37 586.577 1965.82 586.731 1957.48 586.731C1948.38 586.731 1940.74 584.571 1934.57 580.251C1928.4 575.776 1925.31 568.447 1925.31 558.263V488.598H1908.88ZM2042.69 589.972C2023.56 589.972 2008.51 584.108 1997.56 572.382C1986.6 560.501 1981.13 545.38 1981.13 527.018C1981.13 509.274 1986.6 494.461 1997.56 482.58C2008.51 470.545 2022.56 464.527 2039.68 464.527C2058.35 464.527 2072.78 471.008 2082.96 483.969C2093.15 496.93 2098.24 514.289 2098.24 536.045H2012.14C2013.38 545.457 2016.54 552.786 2021.63 558.032C2026.72 563.124 2033.67 565.67 2042.46 565.67C2054.03 565.67 2061.67 560.809 2065.37 551.089H2096.39C2094.07 562.198 2088.21 571.456 2078.8 578.862C2069.39 586.269 2057.35 589.972 2042.69 589.972ZM2040.15 488.829C2024.87 488.829 2015.69 497.316 2012.6 514.289H2065.37C2064.91 506.728 2062.36 500.633 2057.74 496.004C2053.11 491.221 2047.24 488.829 2040.15 488.829ZM2160.49 627.003C2144.44 627.003 2131.55 623.763 2121.83 617.282C2112.27 610.802 2106.64 601.698 2104.94 589.972H2136.18C2139.27 598.767 2147.22 603.164 2160.02 603.164C2177.61 603.164 2186.41 594.909 2186.41 578.399V565.438H2185.71C2177.54 574.696 2167.2 579.325 2154.7 579.325C2140.66 579.325 2128.39 574.156 2117.9 563.818C2107.56 553.48 2102.39 539.748 2102.39 522.621C2102.39 505.031 2107.18 490.99 2116.74 480.497C2126.31 469.851 2138.65 464.527 2153.77 464.527C2168.12 464.527 2179.08 469.774 2186.64 480.266H2187.1V467.768H2217.42V577.474C2217.42 592.903 2212.72 604.939 2203.3 613.579C2193.74 622.529 2179.46 627.003 2160.49 627.003ZM2160.02 554.097C2169.43 554.097 2176.46 551.089 2181.08 545.071C2185.71 539.053 2188.03 531.338 2188.03 521.926C2188.03 512.668 2185.56 505.031 2180.62 499.013C2175.84 492.841 2168.89 489.755 2159.79 489.755C2151.77 489.755 2145.29 492.687 2140.35 498.55C2135.57 504.413 2133.17 512.283 2133.17 522.158C2133.17 532.187 2135.57 540.056 2140.35 545.765C2145.29 551.32 2151.84 554.097 2160.02 554.097ZM2235.61 625.383V600.618H2246.72C2258.44 600.618 2264.31 595.218 2264.31 584.417C2264.31 579.171 2261.3 568.447 2255.28 552.246L2223.34 467.768H2256.44L2274.03 521.232L2281.66 547.154H2282.13C2284.29 537.125 2286.6 528.484 2289.07 521.232L2305.74 467.768H2337.44L2296.01 589.509C2291.39 603.087 2286.14 612.422 2280.28 617.514C2274.57 622.76 2265.85 625.383 2254.12 625.383H2235.61Z" fill="#0B0B14"/>
</svg>
