<svg width="1000" height="1000" viewBox="0 0 1000 1000" fill="none" xmlns="http://www.w3.org/2000/svg">
<rect width="1000" height="1000" fill="#1D1D20"/>
<rect width="1000" height="1000" fill="#1D1D20"/>
<path d="M340.603 774.822C340.603 805.178 315.994 829.787 285.638 829.787C255.282 829.787 230.674 805.178 230.674 774.822L230.674 357.092C230.674 326.736 255.282 302.127 285.638 302.127C315.994 302.127 340.603 326.736 340.603 357.092L340.603 774.822Z" fill="#22B554"/>
<path d="M659.397 225.178C659.397 194.821 684.006 170.213 714.362 170.213C744.718 170.213 769.326 194.821 769.326 225.177L769.326 642.908C769.326 673.264 744.718 697.873 714.362 697.873C684.006 697.873 659.397 673.264 659.397 642.908L659.397 225.178Z" fill="#22B554"/>
<path d="M483.511 510.993C483.511 541.349 458.902 565.958 428.546 565.958C398.19 565.958 373.582 541.349 373.582 510.993L373.582 357.092C373.582 326.736 398.19 302.128 428.546 302.128C458.902 302.128 483.511 326.736 483.511 357.092L483.511 510.993Z" fill="#F62F2F"/>
<path d="M516.489 489.007C516.489 458.651 541.098 434.043 571.454 434.043C601.81 434.043 626.418 458.651 626.418 489.007L626.418 642.908C626.418 673.264 601.81 697.872 571.454 697.872C541.098 697.872 516.489 673.264 516.489 642.908L516.489 489.007Z" fill="#F62F2F"/>
</svg>
