<svg width="1601" height="746" viewBox="0 0 1601 746" fill="none" xmlns="http://www.w3.org/2000/svg">
<rect x="707.652" y="386.655" width="64.2908" height="308.596" rx="32.1454" transform="rotate(180 707.652 386.655)" fill="#22B554"/>
<rect x="894.095" y="0.911011" width="64.2908" height="308.596" rx="32.1454" fill="#22B554"/>
<rect x="791.23" y="232.358" width="64.2908" height="154.298" rx="32.1454" transform="rotate(180 791.23 232.358)" fill="#F62F2F"/>
<rect x="810.517" y="155.209" width="64.2908" height="154.298" rx="32.1454" fill="#F62F2F"/>
<path d="M5.28122 527.841V499.604H138.363V527.841H88.6022V665.089H55.0424V527.841H5.28122ZM162.206 546.356V565.335H162.9C166.603 558.392 170.692 553.3 175.167 550.06C179.642 546.665 185.274 544.968 192.063 544.968C195.303 544.968 197.772 545.276 199.469 545.894V573.436H198.775C188.128 572.356 179.565 574.67 173.084 580.379C166.603 586.088 163.363 595.038 163.363 607.227V665.089H131.886V546.356H162.206ZM279.767 665.089C278.224 663.083 276.989 658.685 276.064 651.896H275.601C272.206 656.988 267.886 660.923 262.64 663.7C257.393 666.478 250.064 667.866 240.652 667.866C228.154 667.866 218.125 664.703 210.564 658.377C203.003 652.051 199.223 643.101 199.223 631.529C199.223 619.494 203.389 610.699 211.721 605.144C220.053 599.435 231.78 595.5 246.901 593.34C258.011 591.797 265.571 590.254 269.583 588.711C273.595 587.014 275.601 584.082 275.601 579.916C275.601 575.596 273.903 572.201 270.509 569.733C267.114 567.11 262.177 565.798 255.696 565.798C241.346 565.798 233.709 571.353 232.783 582.462H204.778C205.241 571.198 209.792 561.863 218.433 554.457C227.074 547.051 239.572 543.348 255.928 543.348C289.256 543.348 305.92 557.929 305.92 587.091V647.499C305.92 656.448 307.309 661.926 310.086 663.932V665.089H279.767ZM248.29 645.879C256.931 645.879 263.72 643.641 268.657 639.167C273.749 634.692 276.295 629.369 276.295 623.197V605.376C272.9 607.381 265.571 609.696 254.307 612.319C245.358 614.325 239.032 616.639 235.329 619.262C231.626 621.731 229.774 625.589 229.774 630.835C229.774 640.864 235.946 645.879 248.29 645.879ZM365.74 668.561C350.773 668.561 338.661 662.929 329.403 651.665C320.145 640.247 315.516 624.971 315.516 605.838C315.516 587.323 320.222 572.279 329.634 560.706C339.201 548.98 351.39 543.116 366.203 543.116C381.016 543.116 392.202 548.98 399.763 560.706H400.457V499.604H431.934V665.089H401.615V649.582H401.152C393.437 662.234 381.633 668.561 365.74 668.561ZM372.684 642.176C381.942 642.176 388.962 639.012 393.745 632.686C398.683 626.36 401.152 617.642 401.152 606.533C401.152 581.228 391.971 568.575 373.609 568.575C365.123 568.575 358.642 571.97 354.168 578.759C349.693 585.548 347.456 594.575 347.456 605.838C347.456 617.411 349.616 626.36 353.936 632.686C358.411 639.012 364.66 642.176 372.684 642.176ZM447.766 665.089V546.356H479.243V665.089H447.766ZM447.766 527.841V499.604H479.243V527.841H447.766ZM525.679 546.356V562.558H526.374C534.551 549.597 546.278 543.116 561.554 543.116C573.743 543.116 583.618 547.282 591.179 555.614C598.739 563.792 602.52 574.439 602.52 587.554V665.089H571.043V592.183C571.043 585.703 569.191 580.456 565.488 576.445C561.939 572.433 556.925 570.427 550.444 570.427C543.501 570.427 537.714 572.973 533.086 578.065C528.611 583.157 526.374 589.714 526.374 597.738V665.089H494.897V546.356H525.679ZM669.6 705.592C653.553 705.592 640.669 702.352 630.948 695.871C621.381 689.391 615.75 680.287 614.052 668.561H645.298C648.384 677.356 656.33 681.753 669.137 681.753C686.727 681.753 695.522 673.498 695.522 656.988V644.027H694.827C686.649 653.285 676.312 657.914 663.813 657.914C649.772 657.914 637.506 652.745 627.013 642.407C616.675 632.069 611.506 618.337 611.506 601.209C611.506 583.619 616.29 569.578 625.856 559.086C635.423 548.44 647.766 543.116 662.888 543.116C677.237 543.116 688.192 548.362 695.753 558.855H696.216V546.356H726.536V656.062C726.536 671.492 721.829 683.527 712.417 692.168C702.851 701.117 688.578 705.592 669.6 705.592ZM669.137 632.686C678.549 632.686 685.569 629.677 690.198 623.66C694.827 617.642 697.142 609.927 697.142 600.515C697.142 591.257 694.673 583.619 689.735 577.602C684.952 571.43 678.009 568.344 668.905 568.344C660.882 568.344 654.401 571.276 649.464 577.139C644.68 583.002 642.289 590.871 642.289 600.747C642.289 610.776 644.68 618.645 649.464 624.354C654.401 629.909 660.959 632.686 669.137 632.686ZM843.078 668.792C820.705 668.792 803.346 664.086 791.003 654.674C778.659 645.107 772.178 631.529 771.561 613.939H804.427C805.507 623.814 808.978 630.912 814.842 635.232C820.859 639.553 829.809 641.713 841.689 641.713C851.102 641.713 858.817 640.015 864.834 636.621C870.852 633.072 873.861 627.672 873.861 620.42C873.861 617.797 873.475 615.482 872.703 613.476C872.086 611.316 870.698 609.464 868.537 607.921C866.377 606.224 864.526 604.913 862.983 603.987C861.44 602.907 858.585 601.827 854.419 600.747C850.253 599.512 847.09 598.664 844.93 598.201C842.77 597.583 838.758 596.581 832.895 595.192C825.797 593.495 819.933 592.029 815.305 590.794C810.83 589.56 805.815 587.631 800.26 585.008C794.86 582.385 790.54 579.531 787.299 576.445C784.213 573.204 781.59 569.038 779.43 563.946C777.27 558.7 776.19 552.76 776.19 546.125C776.19 530.232 781.976 518.043 793.548 509.556C805.275 500.916 820.628 496.595 839.606 496.595C858.431 496.595 873.475 501.07 884.739 510.019C896.002 518.969 902.251 531.698 903.486 548.208H871.315C870.389 540.185 866.994 534.013 861.131 529.692C855.422 525.372 848.17 523.212 839.375 523.212C830.271 523.212 823.019 524.986 817.619 528.535C812.219 532.084 809.518 536.79 809.518 542.653C809.518 548.98 812.141 553.609 817.388 556.54C822.788 559.472 832.2 562.403 845.624 565.335C853.648 567.032 860.205 568.653 865.297 570.196C870.389 571.584 875.867 573.667 881.73 576.445C887.747 579.068 892.376 581.999 895.617 585.24C899.011 588.48 901.789 592.8 903.949 598.201C906.263 603.447 907.42 609.542 907.42 616.485C907.42 632.841 901.48 645.647 889.599 654.905C877.718 664.163 862.211 668.792 843.078 668.792ZM912.216 567.187V546.356H928.649V509.325H959.431V546.356H979.798V567.187H959.431V630.14C959.431 638.01 963.366 641.944 971.235 641.944L980.493 641.713V664.857C975.709 665.166 969.152 665.32 960.82 665.32C951.716 665.32 944.078 663.16 937.906 658.84C931.734 654.365 928.649 647.036 928.649 636.852V567.187H912.216ZM1021.7 546.356V565.335H1022.39C1026.1 558.392 1030.18 553.3 1034.66 550.06C1039.13 546.665 1044.77 544.968 1051.55 544.968C1054.79 544.968 1057.26 545.276 1058.96 545.894V573.436H1058.27C1047.62 572.356 1039.06 574.67 1032.58 580.379C1026.1 586.088 1022.85 595.038 1022.85 607.227V665.089H991.378V546.356H1021.7ZM1139.26 665.089C1137.72 663.083 1136.48 658.685 1135.55 651.896H1135.09C1131.7 656.988 1127.38 660.923 1122.13 663.7C1116.88 666.478 1109.56 667.866 1100.14 667.866C1087.65 667.866 1077.62 664.703 1070.06 658.377C1062.49 652.051 1058.71 643.101 1058.71 631.529C1058.71 619.494 1062.88 610.699 1071.21 605.144C1079.54 599.435 1091.27 595.5 1106.39 593.34C1117.5 591.797 1125.06 590.254 1129.07 588.711C1133.09 587.014 1135.09 584.082 1135.09 579.916C1135.09 575.596 1133.39 572.201 1130 569.733C1126.61 567.11 1121.67 565.798 1115.19 565.798C1100.84 565.798 1093.2 571.353 1092.27 582.462H1064.27C1064.73 571.198 1069.28 561.863 1077.92 554.457C1086.57 547.051 1099.06 543.348 1115.42 543.348C1148.75 543.348 1165.41 557.929 1165.41 587.091V647.499C1165.41 656.448 1166.8 661.926 1169.58 663.932V665.089H1139.26ZM1107.78 645.879C1116.42 645.879 1123.21 643.641 1128.15 639.167C1133.24 634.692 1135.79 629.369 1135.79 623.197V605.376C1132.39 607.381 1125.06 609.696 1113.8 612.319C1104.85 614.325 1098.52 616.639 1094.82 619.262C1091.12 621.731 1089.27 625.589 1089.27 630.835C1089.27 640.864 1095.44 645.879 1107.78 645.879ZM1171.59 567.187V546.356H1188.02V509.325H1218.81V546.356H1239.17V567.187H1218.81V630.14C1218.81 638.01 1222.74 641.944 1230.61 641.944L1239.87 641.713V664.857C1235.08 665.166 1228.53 665.32 1220.19 665.32C1211.09 665.32 1203.45 663.16 1197.28 658.84C1191.11 654.365 1188.02 647.036 1188.02 636.852V567.187H1171.59ZM1305.4 668.561C1286.27 668.561 1271.22 662.697 1260.27 650.971C1249.31 639.09 1243.84 623.968 1243.84 605.607C1243.84 587.863 1249.31 573.05 1260.27 561.169C1271.22 549.134 1285.27 543.116 1302.39 543.116C1321.06 543.116 1335.49 549.597 1345.67 562.558C1355.86 575.519 1360.95 592.877 1360.95 614.633H1274.85C1276.08 624.046 1279.25 631.375 1284.34 636.621C1289.43 641.713 1296.37 644.259 1305.17 644.259C1316.74 644.259 1324.38 639.398 1328.08 629.677H1359.1C1356.78 640.787 1350.92 650.045 1341.51 657.451C1332.09 664.857 1320.06 668.561 1305.4 668.561ZM1302.86 567.418C1287.58 567.418 1278.4 575.905 1275.31 592.877H1328.08C1327.62 585.317 1325.07 579.222 1320.45 574.593C1315.82 569.81 1309.95 567.418 1302.86 567.418ZM1423.19 705.592C1407.15 705.592 1394.26 702.352 1384.54 695.871C1374.98 689.391 1369.34 680.287 1367.65 668.561H1398.89C1401.98 677.356 1409.93 681.753 1422.73 681.753C1440.32 681.753 1449.12 673.498 1449.12 656.988V644.027H1448.42C1440.24 653.285 1429.91 657.914 1417.41 657.914C1403.37 657.914 1391.1 652.745 1380.61 642.407C1370.27 632.069 1365.1 618.337 1365.1 601.209C1365.1 583.619 1369.88 569.578 1379.45 559.086C1389.02 548.44 1401.36 543.116 1416.48 543.116C1430.83 543.116 1441.79 548.362 1449.35 558.855H1449.81V546.356H1480.13V656.062C1480.13 671.492 1475.42 683.527 1466.01 692.168C1456.45 701.117 1442.17 705.592 1423.19 705.592ZM1422.73 632.686C1432.14 632.686 1439.16 629.677 1443.79 623.66C1448.42 617.642 1450.74 609.927 1450.74 600.515C1450.74 591.257 1448.27 583.619 1443.33 577.602C1438.55 571.43 1431.6 568.344 1422.5 568.344C1414.48 568.344 1408 571.276 1403.06 577.139C1398.28 583.002 1395.88 590.871 1395.88 600.747C1395.88 610.776 1398.28 618.645 1403.06 624.354C1408 629.909 1414.55 632.686 1422.73 632.686ZM1498.32 703.972V679.207H1509.43C1521.15 679.207 1527.02 673.807 1527.02 663.006C1527.02 657.76 1524.01 647.036 1517.99 630.835L1486.05 546.356H1519.15L1536.74 599.821L1544.37 625.743H1544.84C1547 615.713 1549.31 607.073 1551.78 599.821L1568.44 546.356H1600.15L1558.72 668.098C1554.09 681.676 1548.85 691.011 1542.99 696.103C1537.28 701.349 1528.56 703.972 1516.83 703.972H1498.32Z" fill="#FDF8F2"/>
</svg>
