<svg width="1000" height="1001" viewBox="0 0 1000 1001" fill="none" xmlns="http://www.w3.org/2000/svg">
<g clip-path="url(#clip0_1_185)">
<rect width="1000" height="1000" transform="translate(0 0.911133)" fill="#F7F7F7"/>
<rect width="1000" height="1000" transform="translate(0 0.911133)" fill="#F7F7F7"/>
<path d="M340.603 775.732C340.603 806.088 315.994 830.697 285.638 830.697C255.282 830.697 230.674 806.088 230.674 775.732L230.674 358.002C230.674 327.646 255.282 303.037 285.638 303.037C315.994 303.037 340.603 327.646 340.603 358.002L340.603 775.732Z" fill="#6C6C6C"/>
<path d="M659.397 226.088C659.397 195.732 684.006 171.123 714.362 171.123C744.718 171.123 769.326 195.732 769.326 226.088L769.326 643.818C769.326 674.174 744.718 698.783 714.362 698.783C684.006 698.783 659.397 674.174 659.397 643.818L659.397 226.088Z" fill="#6C6C6C"/>
<path d="M483.511 511.904C483.511 542.26 458.902 566.869 428.546 566.869C398.19 566.869 373.582 542.26 373.582 511.904L373.582 358.004C373.582 327.648 398.19 303.039 428.546 303.039C458.902 303.039 483.511 327.648 483.511 358.004L483.511 511.904Z" fill="#939393"/>
<path d="M516.489 489.917C516.489 459.561 541.098 434.953 571.454 434.953C601.81 434.953 626.418 459.561 626.418 489.917L626.418 643.818C626.418 674.174 601.81 698.783 571.454 698.783C541.098 698.783 516.489 674.174 516.489 643.818L516.489 489.917Z" fill="#939393"/>
</g>
<defs>
<clipPath id="clip0_1_185">
<rect width="1000" height="1000" fill="white" transform="translate(0 0.911133)"/>
</clipPath>
</defs>
</svg>
