<svg width="2019" height="386" viewBox="0 0 2019 386" fill="none" xmlns="http://www.w3.org/2000/svg">
<rect x="65.0374" y="385.784" width="64.2908" height="308.596" rx="32.1454" transform="rotate(180 65.0374 385.784)" fill="#6C6C6C"/>
<rect x="251.481" y="0.0385742" width="64.2908" height="308.596" rx="32.1454" fill="#6C6C6C"/>
<rect x="148.615" y="231.486" width="64.2908" height="154.298" rx="32.1454" transform="rotate(180 148.615 231.486)" fill="#939393"/>
<rect x="167.903" y="154.337" width="64.2908" height="154.298" rx="32.1454" fill="#939393"/>
<path d="M423.045 129.163V100.926H556.127V129.163H506.366V266.411H472.806V129.163H423.045ZM579.97 147.679V166.657H580.664C584.367 159.714 588.456 154.622 592.931 151.382C597.405 147.987 603.037 146.29 609.826 146.29C613.067 146.29 615.535 146.599 617.233 147.216V174.758H616.538C605.892 173.678 597.328 175.992 590.848 181.701C584.367 187.411 581.127 196.36 581.127 208.549V266.411H549.65V147.679H579.97ZM697.53 266.411C695.987 264.405 694.753 260.008 693.827 253.219H693.364C689.97 258.31 685.649 262.245 680.403 265.022C675.157 267.8 667.828 269.188 658.416 269.188C645.918 269.188 635.888 266.025 628.328 259.699C620.767 253.373 616.987 244.424 616.987 232.851C616.987 220.816 621.153 212.021 629.485 206.466C637.817 200.757 649.544 196.823 664.665 194.663C675.774 193.12 683.335 191.577 687.347 190.034C691.359 188.336 693.364 185.405 693.364 181.239C693.364 176.918 691.667 173.524 688.273 171.055C684.878 168.432 679.94 167.12 673.46 167.12C659.11 167.12 651.472 172.675 650.547 183.785H622.542C623.004 172.521 627.556 163.186 636.197 155.779C644.838 148.373 657.336 144.67 673.691 144.67C707.02 144.67 723.684 159.251 723.684 188.413V248.821C723.684 257.77 725.073 263.248 727.85 265.254V266.411H697.53ZM666.054 247.201C674.694 247.201 681.483 244.964 686.421 240.489C691.513 236.014 694.059 230.691 694.059 224.519V206.698C690.664 208.704 683.335 211.018 672.071 213.641C663.122 215.647 656.796 217.962 653.093 220.585C649.389 223.053 647.538 226.911 647.538 232.157C647.538 242.186 653.71 247.201 666.054 247.201ZM783.504 269.883C768.537 269.883 756.425 264.251 747.167 252.987C737.909 241.569 733.28 226.294 733.28 207.161C733.28 188.645 737.986 173.601 747.398 162.028C756.965 150.302 769.154 144.439 783.967 144.439C798.78 144.439 809.966 150.302 817.527 162.028H818.221V100.926H849.698V266.411H819.378V250.904H818.915C811.201 263.557 799.397 269.883 783.504 269.883ZM790.447 243.498C799.705 243.498 806.726 240.335 811.509 234.009C816.447 227.682 818.915 218.964 818.915 207.855C818.915 182.55 809.735 169.898 791.373 169.898C782.887 169.898 776.406 173.292 771.932 180.081C767.457 186.87 765.22 195.897 765.22 207.161C765.22 218.733 767.38 227.682 771.7 234.009C776.175 240.335 782.424 243.498 790.447 243.498ZM865.53 266.411V147.679H897.007V266.411H865.53ZM865.53 129.163V100.926H897.007V129.163H865.53ZM943.443 147.679V163.88H944.137C952.315 150.919 964.042 144.439 979.317 144.439C991.507 144.439 1001.38 148.605 1008.94 156.937C1016.5 165.114 1020.28 175.761 1020.28 188.876V266.411H988.807V193.505C988.807 187.025 986.955 181.779 983.252 177.767C979.703 173.755 974.688 171.749 968.208 171.749C961.264 171.749 955.478 174.295 950.849 179.387C946.375 184.479 944.137 191.037 944.137 199.06V266.411H912.661V147.679H943.443ZM1087.36 306.914C1071.32 306.914 1058.43 303.674 1048.71 297.194C1039.15 290.713 1033.51 281.609 1031.82 269.883H1063.06C1066.15 278.678 1074.09 283.075 1086.9 283.075C1104.49 283.075 1113.29 274.82 1113.29 258.31V245.349H1112.59C1104.41 254.607 1094.08 259.236 1081.58 259.236C1067.54 259.236 1055.27 254.067 1044.78 243.729C1034.44 233.391 1029.27 219.659 1029.27 202.532C1029.27 184.942 1034.05 170.901 1043.62 160.408C1053.19 149.762 1065.53 144.439 1080.65 144.439C1095 144.439 1105.96 149.685 1113.52 160.177H1113.98V147.679H1144.3V257.385C1144.3 272.815 1139.59 284.85 1130.18 293.49C1120.61 302.44 1106.34 306.914 1087.36 306.914ZM1086.9 234.009C1096.31 234.009 1103.33 231 1107.96 224.982C1112.59 218.964 1114.91 211.25 1114.91 201.837C1114.91 192.58 1112.44 184.942 1107.5 178.924C1102.72 172.752 1095.77 169.666 1086.67 169.666C1078.65 169.666 1072.16 172.598 1067.23 178.461C1062.44 184.325 1060.05 192.194 1060.05 202.069C1060.05 212.098 1062.44 219.967 1067.23 225.676C1072.16 231.231 1078.72 234.009 1086.9 234.009ZM1260.84 270.114C1238.47 270.114 1221.11 265.408 1208.77 255.996C1196.42 246.43 1189.94 232.851 1189.32 215.261H1222.19C1223.27 225.136 1226.74 232.234 1232.61 236.554C1238.62 240.875 1247.57 243.035 1259.45 243.035C1268.87 243.035 1276.58 241.338 1282.6 237.943C1288.62 234.394 1291.62 228.994 1291.62 221.742C1291.62 219.119 1291.24 216.804 1290.47 214.798C1289.85 212.638 1288.46 210.787 1286.3 209.244C1284.14 207.546 1282.29 206.235 1280.75 205.309C1279.2 204.229 1276.35 203.149 1272.18 202.069C1268.02 200.834 1264.85 199.986 1262.69 199.523C1260.53 198.906 1256.52 197.903 1250.66 196.514C1243.56 194.817 1237.7 193.351 1233.07 192.117C1228.59 190.882 1223.58 188.953 1218.02 186.33C1212.62 183.707 1208.3 180.853 1205.06 177.767C1201.98 174.527 1199.35 170.361 1197.19 165.269C1195.03 160.023 1193.95 154.082 1193.95 147.447C1193.95 131.555 1199.74 119.365 1211.31 110.879C1223.04 102.238 1238.39 97.9176 1257.37 97.9176C1276.19 97.9176 1291.24 102.392 1302.5 111.342C1313.77 120.291 1320.02 133.02 1321.25 149.53H1289.08C1288.15 141.507 1284.76 135.335 1278.89 131.015C1273.19 126.694 1265.93 124.534 1257.14 124.534C1248.04 124.534 1240.78 126.308 1235.38 129.857C1229.98 133.406 1227.28 138.112 1227.28 143.976C1227.28 150.302 1229.91 154.931 1235.15 157.862C1240.55 160.794 1249.96 163.726 1263.39 166.657C1271.41 168.355 1277.97 169.975 1283.06 171.518C1288.15 172.906 1293.63 174.99 1299.49 177.767C1305.51 180.39 1310.14 183.322 1313.38 186.562C1316.78 189.802 1319.55 194.122 1321.71 199.523C1324.03 204.769 1325.18 210.864 1325.18 217.807C1325.18 234.163 1319.24 246.97 1307.36 256.227C1295.48 265.485 1279.97 270.114 1260.84 270.114ZM1329.98 168.509V147.679H1346.41V110.647H1377.19V147.679H1397.56V168.509H1377.19V231.463C1377.19 239.332 1381.13 243.266 1389 243.266L1398.26 243.035V266.18C1393.47 266.488 1386.92 266.643 1378.58 266.643C1369.48 266.643 1361.84 264.482 1355.67 260.162C1349.5 255.687 1346.41 248.358 1346.41 238.175V168.509H1329.98ZM1439.46 147.679V166.657H1440.16C1443.86 159.714 1447.95 154.622 1452.42 151.382C1456.9 147.987 1462.53 146.29 1469.32 146.29C1472.56 146.29 1475.03 146.599 1476.72 147.216V174.758H1476.03C1465.38 173.678 1456.82 175.992 1450.34 181.701C1443.86 187.411 1440.62 196.36 1440.62 208.549V266.411H1409.14V147.679H1439.46ZM1557.02 266.411C1555.48 264.405 1554.24 260.008 1553.32 253.219H1552.86C1549.46 258.31 1545.14 262.245 1539.89 265.022C1534.65 267.8 1527.32 269.188 1517.91 269.188C1505.41 269.188 1495.38 266.025 1487.82 259.699C1480.26 253.373 1476.48 244.424 1476.48 232.851C1476.48 220.816 1480.64 212.021 1488.98 206.466C1497.31 200.757 1509.04 196.823 1524.16 194.663C1535.27 193.12 1542.83 191.577 1546.84 190.034C1550.85 188.336 1552.86 185.405 1552.86 181.239C1552.86 176.918 1551.16 173.524 1547.76 171.055C1544.37 168.432 1539.43 167.12 1532.95 167.12C1518.6 167.12 1510.96 172.675 1510.04 183.785H1482.03C1482.5 172.521 1487.05 163.186 1495.69 155.779C1504.33 148.373 1516.83 144.67 1533.18 144.67C1566.51 144.67 1583.18 159.251 1583.18 188.413V248.821C1583.18 257.77 1584.56 263.248 1587.34 265.254V266.411H1557.02ZM1525.55 247.201C1534.19 247.201 1540.97 244.964 1545.91 240.489C1551 236.014 1553.55 230.691 1553.55 224.519V206.698C1550.16 208.704 1542.83 211.018 1531.56 213.641C1522.61 215.647 1516.29 217.962 1512.58 220.585C1508.88 223.053 1507.03 226.911 1507.03 232.157C1507.03 242.186 1513.2 247.201 1525.55 247.201ZM1589.35 168.509V147.679H1605.79V110.647H1636.57V147.679H1656.94V168.509H1636.57V231.463C1636.57 239.332 1640.5 243.266 1648.37 243.266L1657.63 243.035V266.18C1652.85 266.488 1646.29 266.643 1637.96 266.643C1628.85 266.643 1621.22 264.482 1615.04 260.162C1608.87 255.687 1605.79 248.358 1605.79 238.175V168.509H1589.35ZM1723.16 269.883C1704.03 269.883 1688.99 264.02 1678.03 252.293C1667.08 240.412 1661.6 225.291 1661.6 206.929C1661.6 189.185 1667.08 174.372 1678.03 162.491C1688.99 150.456 1703.03 144.439 1720.16 144.439C1738.83 144.439 1753.25 150.919 1763.44 163.88C1773.62 176.841 1778.71 194.2 1778.71 215.956H1692.61C1693.85 225.368 1697.01 232.697 1702.1 237.943C1707.19 243.035 1714.14 245.581 1722.93 245.581C1734.51 245.581 1742.14 240.721 1745.85 231H1776.86C1774.55 242.109 1768.68 251.367 1759.27 258.773C1749.86 266.18 1737.82 269.883 1723.16 269.883ZM1720.62 168.74C1705.34 168.74 1696.16 177.227 1693.08 194.2H1745.85C1745.38 186.639 1742.84 180.544 1738.21 175.915C1733.58 171.132 1727.72 168.74 1720.62 168.74ZM1840.96 306.914C1824.91 306.914 1812.03 303.674 1802.31 297.194C1792.74 290.713 1787.11 281.609 1785.41 269.883H1816.66C1819.74 278.678 1827.69 283.075 1840.5 283.075C1858.09 283.075 1866.88 274.82 1866.88 258.31V245.349H1866.19C1858.01 254.607 1847.67 259.236 1835.17 259.236C1821.13 259.236 1808.86 254.067 1798.37 243.729C1788.03 233.391 1782.87 219.659 1782.87 202.532C1782.87 184.942 1787.65 170.901 1797.22 160.408C1806.78 149.762 1819.13 144.439 1834.25 144.439C1848.6 144.439 1859.55 149.685 1867.11 160.177H1867.58V147.679H1897.89V257.385C1897.89 272.815 1893.19 284.85 1883.78 293.49C1874.21 302.44 1859.94 306.914 1840.96 306.914ZM1840.5 234.009C1849.91 234.009 1856.93 231 1861.56 224.982C1866.19 218.964 1868.5 211.25 1868.5 201.837C1868.5 192.58 1866.03 184.942 1861.09 178.924C1856.31 172.752 1849.37 169.666 1840.26 169.666C1832.24 169.666 1825.76 172.598 1820.82 178.461C1816.04 184.325 1813.65 192.194 1813.65 202.069C1813.65 212.098 1816.04 219.967 1820.82 225.676C1825.76 231.231 1832.32 234.009 1840.5 234.009ZM1916.08 305.294V280.529H1927.19C1938.92 280.529 1944.78 275.129 1944.78 264.328C1944.78 259.082 1941.77 248.358 1935.75 232.157L1903.81 147.679H1936.91L1954.5 201.143L1962.14 227.065H1962.6C1964.76 217.036 1967.08 208.395 1969.54 201.143L1986.21 147.679H2017.92L1976.49 269.42C1971.86 282.998 1966.61 292.333 1960.75 297.425C1955.04 302.671 1946.32 305.294 1934.6 305.294H1916.08Z" fill="#0F0F0F"/>
</svg>
