<svg width="1254" height="463" viewBox="0 0 1254 463" fill="none" xmlns="http://www.w3.org/2000/svg">
<rect x="64.8013" y="424.784" width="64.2908" height="308.596" rx="32.1454" transform="rotate(180 64.8013 424.784)" fill="#6C6C6C"/>
<rect x="251.245" y="39.0386" width="64.2908" height="308.596" rx="32.1454" fill="#6C6C6C"/>
<rect x="148.379" y="270.486" width="64.2908" height="154.298" rx="32.1454" transform="rotate(180 148.379 270.486)" fill="#939393"/>
<rect x="167.667" y="193.337" width="64.2908" height="154.298" rx="32.1454" fill="#939393"/>
<path d="M422.567 52.663V24.4264H555.649V52.663H505.888V189.911H472.328V52.663H422.567ZM579.492 71.1788V90.1574H580.186C583.889 83.214 587.978 78.1222 592.453 74.8819C596.927 71.4874 602.559 69.7901 609.348 69.7901C612.589 69.7901 615.057 70.0987 616.755 70.7159V98.2581H616.06C605.414 97.178 596.85 99.4925 590.37 105.201C583.889 110.911 580.649 119.86 580.649 132.049V189.911H549.172V71.1788H579.492ZM697.052 189.911C695.509 187.905 694.275 183.508 693.349 176.719H692.886C689.492 181.81 685.171 185.745 679.925 188.522C674.679 191.3 667.35 192.688 657.938 192.688C645.44 192.688 635.41 189.525 627.85 183.199C620.289 176.873 616.509 167.924 616.509 156.351C616.509 144.316 620.675 135.521 629.007 129.966C637.339 124.257 649.066 120.323 664.187 118.163C675.296 116.62 682.857 115.077 686.869 113.534C690.88 111.836 692.886 108.905 692.886 104.739C692.886 100.418 691.189 97.0237 687.794 94.5549C684.4 91.9318 679.462 90.6203 672.982 90.6203C658.632 90.6203 650.994 96.175 650.069 107.285H622.063C622.526 96.0208 627.078 86.6857 635.719 79.2794C644.36 71.8731 656.858 68.1699 673.213 68.1699C706.542 68.1699 723.206 82.7511 723.206 111.913V172.321C723.206 181.27 724.595 186.748 727.372 188.754V189.911H697.052ZM665.576 170.701C674.216 170.701 681.005 168.464 685.943 163.989C691.035 159.514 693.581 154.191 693.581 148.019V130.198C690.186 132.204 682.857 134.518 671.593 137.141C662.644 139.147 656.318 141.462 652.615 144.085C648.911 146.553 647.06 150.411 647.06 155.657C647.06 165.686 653.232 170.701 665.576 170.701ZM783.026 193.383C768.059 193.383 755.947 187.751 746.689 176.487C737.431 165.069 732.802 149.794 732.802 130.661C732.802 112.145 737.508 97.1008 746.92 85.5285C756.487 73.8018 768.676 67.9385 783.489 67.9385C798.301 67.9385 809.488 73.8018 817.049 85.5285H817.743V24.4264H849.22V189.911H818.9V174.404H818.437C810.722 187.057 798.919 193.383 783.026 193.383ZM789.969 166.998C799.227 166.998 806.248 163.835 811.031 157.509C815.969 151.182 818.437 142.464 818.437 131.355C818.437 106.05 809.257 93.3977 790.895 93.3977C782.409 93.3977 775.928 96.7922 771.454 103.581C766.979 110.37 764.742 119.397 764.742 130.661C764.742 142.233 766.902 151.182 771.222 157.509C775.697 163.835 781.946 166.998 789.969 166.998ZM865.052 189.911V71.1788H896.529V189.911H865.052ZM865.052 52.663V24.4264H896.529V52.663H865.052ZM942.965 71.1788V87.3801H943.659C951.837 74.419 963.564 67.9385 978.839 67.9385C991.029 67.9385 1000.9 72.1045 1008.46 80.4366C1016.03 88.6144 1019.81 99.261 1019.81 112.376V189.911H988.329V117.005C988.329 110.525 986.477 105.279 982.774 101.267C979.225 97.2551 974.21 95.2493 967.73 95.2493C960.786 95.2493 955 97.7952 950.371 102.887C945.897 107.979 943.659 114.537 943.659 122.56V189.911H912.182V71.1788H942.965ZM1086.89 230.414C1070.84 230.414 1057.95 227.174 1048.23 220.694C1038.67 214.213 1033.04 205.109 1031.34 193.383H1062.58C1065.67 202.178 1073.62 206.575 1086.42 206.575C1104.01 206.575 1112.81 198.32 1112.81 181.81V168.849H1112.11C1103.94 178.107 1093.6 182.736 1081.1 182.736C1067.06 182.736 1054.79 177.567 1044.3 167.229C1033.96 156.891 1028.79 143.159 1028.79 126.032C1028.79 108.442 1033.58 94.4006 1043.14 83.9083C1052.71 73.2618 1065.05 67.9385 1080.17 67.9385C1094.52 67.9385 1105.48 73.1846 1113.04 83.6769H1113.5V71.1788H1143.82V180.885C1143.82 196.315 1139.12 208.35 1129.7 216.99C1120.14 225.94 1105.86 230.414 1086.89 230.414ZM1086.42 157.509C1095.83 157.509 1102.86 154.5 1107.48 148.482C1112.11 142.464 1114.43 134.75 1114.43 125.337C1114.43 116.08 1111.96 108.442 1107.02 102.424C1102.24 96.2522 1095.29 93.1662 1086.19 93.1662C1078.17 93.1662 1071.69 96.0979 1066.75 101.961C1061.97 107.825 1059.57 115.694 1059.57 125.569C1059.57 135.598 1061.97 143.467 1066.75 149.176C1071.69 154.731 1078.24 157.509 1086.42 157.509ZM495.241 424.614C472.868 424.614 455.51 419.908 443.166 410.496C430.822 400.93 424.341 387.351 423.724 369.761H456.59C457.67 379.636 461.141 386.734 467.005 391.054C473.022 395.375 481.972 397.535 493.853 397.535C503.265 397.535 510.98 395.838 516.997 392.443C523.015 388.894 526.024 383.494 526.024 376.242C526.024 373.619 525.638 371.304 524.867 369.298C524.249 367.138 522.861 365.287 520.701 363.744C518.54 362.046 516.689 360.735 515.146 359.809C513.603 358.729 510.748 357.649 506.582 356.569C502.416 355.334 499.253 354.486 497.093 354.023C494.933 353.406 490.921 352.403 485.058 351.014C477.96 349.317 472.097 347.851 467.468 346.617C462.993 345.382 457.978 343.453 452.424 340.83C447.023 338.207 442.703 335.353 439.463 332.267C436.377 329.027 433.754 324.861 431.593 319.769C429.433 314.523 428.353 308.582 428.353 301.947C428.353 286.055 434.139 273.865 445.712 265.379C457.438 256.738 472.791 252.418 491.77 252.418C510.594 252.418 525.638 256.892 536.902 265.842C548.166 274.791 554.415 287.52 555.649 304.03H523.478C522.552 296.007 519.158 289.835 513.294 285.515C507.585 281.194 500.333 279.034 491.538 279.034C482.435 279.034 475.183 280.808 469.782 284.357C464.382 287.906 461.681 292.612 461.681 298.476C461.681 304.802 464.305 309.431 469.551 312.362C474.951 315.294 484.363 318.226 497.787 321.157C505.811 322.855 512.368 324.475 517.46 326.018C522.552 327.406 528.03 329.49 533.893 332.267C539.911 334.89 544.54 337.822 547.78 341.062C551.174 344.302 553.952 348.622 556.112 354.023C558.426 359.269 559.584 365.364 559.584 372.307C559.584 388.663 553.643 401.47 541.762 410.727C529.881 419.985 514.374 424.614 495.241 424.614ZM564.379 323.009V302.179H580.812V265.147H611.594V302.179H631.961V323.009H611.594V385.963C611.594 393.832 615.529 397.766 623.398 397.766L632.656 397.535V420.68C627.873 420.988 621.315 421.143 612.983 421.143C603.879 421.143 596.241 418.982 590.07 414.662C583.898 410.187 580.812 402.858 580.812 392.675V323.009H564.379ZM673.861 302.179V321.157H674.555C678.258 314.214 682.347 309.122 686.822 305.882C691.296 302.487 696.928 300.79 703.717 300.79C706.958 300.79 709.426 301.099 711.124 301.716V329.258H710.429C699.783 328.178 691.219 330.492 684.739 336.201C678.258 341.911 675.018 350.86 675.018 363.049V420.911H643.541V302.179H673.861ZM791.421 420.911C789.878 418.905 788.644 414.508 787.718 407.719H787.255C783.861 412.81 779.54 416.745 774.294 419.522C769.048 422.3 761.719 423.688 752.307 423.688C739.809 423.688 729.779 420.525 722.219 414.199C714.658 407.873 710.878 398.924 710.878 387.351C710.878 375.316 715.044 366.521 723.376 360.966C731.708 355.257 743.435 351.323 758.556 349.163C769.665 347.62 777.226 346.077 781.238 344.534C785.249 342.836 787.255 339.905 787.255 335.739C787.255 331.418 785.558 328.024 782.163 325.555C778.769 322.932 773.831 321.62 767.351 321.62C753.001 321.62 745.363 327.175 744.438 338.285H716.432C716.895 327.021 721.447 317.686 730.088 310.279C738.728 302.873 751.227 299.17 767.582 299.17C800.911 299.17 817.575 313.751 817.575 342.913V403.321C817.575 412.27 818.963 417.748 821.741 419.754V420.911H791.421ZM759.944 401.701C768.585 401.701 775.374 399.464 780.312 394.989C785.404 390.514 787.95 385.191 787.95 379.019V361.198C784.555 363.204 777.226 365.518 765.962 368.141C757.013 370.147 750.687 372.462 746.983 375.085C743.28 377.553 741.429 381.411 741.429 386.657C741.429 396.686 747.601 401.701 759.944 401.701ZM823.753 323.009V302.179H840.186V265.147H870.969V302.179H891.336V323.009H870.969V385.963C870.969 393.832 874.903 397.766 882.772 397.766L892.03 397.535V420.68C887.247 420.988 880.689 421.143 872.357 421.143C863.254 421.143 855.616 418.982 849.444 414.662C843.272 410.187 840.186 402.858 840.186 392.675V323.009H823.753ZM957.564 424.383C938.431 424.383 923.387 418.52 912.432 406.793C901.477 394.912 895.999 379.791 895.999 361.429C895.999 343.685 901.477 328.872 912.432 316.991C923.387 304.956 937.428 298.939 954.555 298.939C973.225 298.939 987.652 305.419 997.836 318.38C1008.02 331.341 1013.11 348.7 1013.11 370.456H927.013C928.248 379.868 931.411 387.197 936.502 392.443C941.594 397.535 948.538 400.081 957.333 400.081C968.905 400.081 976.543 395.221 980.246 385.5H1011.26C1008.95 396.609 1003.08 405.867 993.67 413.273C984.258 420.68 972.222 424.383 957.564 424.383ZM955.018 323.24C939.743 323.24 930.562 331.727 927.476 348.7H980.246C979.783 341.139 977.237 335.044 972.608 330.415C967.979 325.632 962.116 323.24 955.018 323.24ZM1075.36 461.414C1059.31 461.414 1046.43 458.174 1036.71 451.694C1027.14 445.213 1021.51 436.109 1019.81 424.383H1051.06C1054.14 433.178 1062.09 437.575 1074.9 437.575C1092.49 437.575 1101.28 429.32 1101.28 412.81V399.849H1100.59C1092.41 409.107 1082.07 413.736 1069.57 413.736C1055.53 413.736 1043.26 408.567 1032.77 398.229C1022.43 387.891 1017.26 374.159 1017.26 357.032C1017.26 339.442 1022.05 325.401 1031.61 314.908C1041.18 304.262 1053.52 298.939 1068.65 298.939C1083 298.939 1093.95 304.185 1101.51 314.677H1101.97V302.179H1132.29V411.885C1132.29 427.315 1127.59 439.35 1118.18 447.99C1108.61 456.94 1094.34 461.414 1075.36 461.414ZM1074.9 388.509C1084.31 388.509 1091.33 385.5 1095.96 379.482C1100.59 373.464 1102.9 365.75 1102.9 356.337C1102.9 347.08 1100.43 339.442 1095.49 333.424C1090.71 327.252 1083.77 324.166 1074.66 324.166C1066.64 324.166 1060.16 327.098 1055.22 332.961C1050.44 338.825 1048.05 346.694 1048.05 356.569C1048.05 366.598 1050.44 374.467 1055.22 380.176C1060.16 385.731 1066.72 388.509 1074.9 388.509ZM1150.48 459.794V435.029H1161.59C1173.32 435.029 1179.18 429.629 1179.18 418.828C1179.18 413.582 1176.17 402.858 1170.15 386.657L1138.21 302.179H1171.31L1188.9 355.643L1196.54 381.565H1197C1199.16 371.536 1201.47 362.895 1203.94 355.643L1220.61 302.179H1252.32L1210.89 423.92C1206.26 437.498 1201.01 446.833 1195.15 451.925C1189.44 457.171 1180.72 459.794 1168.99 459.794H1150.48Z" fill="#0F0F0F"/>
</svg>
