<svg width="2659" height="1026" viewBox="0 0 2659 1026" fill="none" xmlns="http://www.w3.org/2000/svg">
<rect width="2657.89" height="1025.75" transform="translate(0.273438 0.0385742)" fill="#F7F7F7"/>
<path d="M384.564 673.638C384.564 691.392 370.172 705.784 352.419 705.784C334.665 705.784 320.273 691.392 320.273 673.638L320.273 429.333C320.273 411.58 334.665 397.188 352.419 397.188C370.172 397.187 384.564 411.579 384.564 429.333L384.564 673.638Z" fill="#6C6C6C"/>
<path d="M571.008 352.184C571.008 334.431 585.4 320.039 603.153 320.039C620.907 320.039 635.299 334.431 635.299 352.184L635.299 596.489C635.299 614.243 620.907 628.635 603.153 628.635C585.4 628.635 571.008 614.243 571.008 596.489L571.008 352.184Z" fill="#6C6C6C"/>
<path d="M468.142 519.34C468.142 537.094 453.75 551.486 435.997 551.486C418.244 551.486 403.852 537.094 403.852 519.34L403.852 429.333C403.852 411.58 418.244 397.188 435.997 397.188C453.75 397.187 468.142 411.579 468.142 429.333L468.142 519.34Z" fill="#939393"/>
<path d="M487.43 506.482C487.43 488.729 501.822 474.337 519.575 474.337C537.329 474.337 551.721 488.729 551.721 506.482L551.721 596.489C551.721 614.243 537.329 628.635 519.575 628.635C501.822 628.635 487.43 614.243 487.43 596.489L487.43 506.482Z" fill="#939393"/>
<path d="M742.572 449.163V420.926H875.654V449.163H825.893V586.411H792.333V449.163H742.572ZM899.497 467.679V486.657H900.191C903.894 479.714 907.983 474.622 912.458 471.382C916.932 467.987 922.564 466.29 929.353 466.29C932.594 466.29 935.062 466.599 936.76 467.216V494.758H936.065C925.419 493.678 916.855 495.992 910.375 501.701C903.894 507.411 900.654 516.36 900.654 528.549V586.411H869.177V467.679H899.497ZM1017.06 586.411C1015.51 584.405 1014.28 580.008 1013.35 573.219H1012.89C1009.5 578.31 1005.18 582.245 999.93 585.022C994.684 587.8 987.355 589.188 977.943 589.188C965.445 589.188 955.415 586.025 947.855 579.699C940.294 573.373 936.514 564.424 936.514 552.851C936.514 540.816 940.68 532.021 949.012 526.466C957.344 520.757 969.071 516.823 984.192 514.663C995.301 513.12 1002.86 511.577 1006.87 510.034C1010.89 508.336 1012.89 505.405 1012.89 501.239C1012.89 496.918 1011.19 493.524 1007.8 491.055C1004.4 488.432 999.467 487.12 992.987 487.12C978.637 487.12 970.999 492.675 970.074 503.785H942.068C942.531 492.521 947.083 483.186 955.724 475.779C964.365 468.373 976.863 464.67 993.218 464.67C1026.55 464.67 1043.21 479.251 1043.21 508.413V568.821C1043.21 577.77 1044.6 583.248 1047.38 585.254V586.411H1017.06ZM985.58 567.201C994.221 567.201 1001.01 564.964 1005.95 560.489C1011.04 556.014 1013.59 550.691 1013.59 544.519V526.698C1010.19 528.704 1002.86 531.018 991.598 533.641C982.649 535.647 976.323 537.962 972.619 540.585C968.916 543.053 967.065 546.911 967.065 552.157C967.065 562.186 973.237 567.201 985.58 567.201ZM1103.03 589.883C1088.06 589.883 1075.95 584.251 1066.69 572.987C1057.44 561.569 1052.81 546.294 1052.81 527.161C1052.81 508.645 1057.51 493.601 1066.93 482.028C1076.49 470.302 1088.68 464.439 1103.49 464.439C1118.31 464.439 1129.49 470.302 1137.05 482.028H1137.75V420.926H1169.22V586.411H1138.91V570.904H1138.44C1130.73 583.557 1118.92 589.883 1103.03 589.883ZM1109.97 563.498C1119.23 563.498 1126.25 560.335 1131.04 554.009C1135.97 547.682 1138.44 538.964 1138.44 527.855C1138.44 502.55 1129.26 489.898 1110.9 489.898C1102.41 489.898 1095.93 493.292 1091.46 500.081C1086.98 506.87 1084.75 515.897 1084.75 527.161C1084.75 538.733 1086.91 547.682 1091.23 554.009C1095.7 560.335 1101.95 563.498 1109.97 563.498ZM1185.06 586.411V467.679H1216.53V586.411H1185.06ZM1185.06 449.163V420.926H1216.53V449.163H1185.06ZM1262.97 467.679V483.88H1263.66C1271.84 470.919 1283.57 464.439 1298.84 464.439C1311.03 464.439 1320.91 468.605 1328.47 476.937C1336.03 485.114 1339.81 495.761 1339.81 508.876V586.411H1308.33V513.505C1308.33 507.025 1306.48 501.779 1302.78 497.767C1299.23 493.755 1294.22 491.749 1287.73 491.749C1280.79 491.749 1275.01 494.295 1270.38 499.387C1265.9 504.479 1263.66 511.037 1263.66 519.06V586.411H1232.19V467.679H1262.97ZM1406.89 626.914C1390.84 626.914 1377.96 623.674 1368.24 617.194C1358.67 610.713 1353.04 601.609 1351.34 589.883H1382.59C1385.67 598.678 1393.62 603.075 1406.43 603.075C1424.02 603.075 1432.81 594.82 1432.81 578.31V565.349H1432.12C1423.94 574.607 1413.6 579.236 1401.1 579.236C1387.06 579.236 1374.8 574.067 1364.3 563.729C1353.97 553.391 1348.8 539.659 1348.8 522.532C1348.8 504.942 1353.58 490.901 1363.15 480.408C1372.71 469.762 1385.06 464.439 1400.18 464.439C1414.53 464.439 1425.48 469.685 1433.04 480.177H1433.51V467.679H1463.83V577.385C1463.83 592.815 1459.12 604.85 1449.71 613.49C1440.14 622.44 1425.87 626.914 1406.89 626.914ZM1406.43 554.009C1415.84 554.009 1422.86 551 1427.49 544.982C1432.12 538.964 1434.43 531.25 1434.43 521.837C1434.43 512.58 1431.96 504.942 1427.03 498.924C1422.24 492.752 1415.3 489.666 1406.2 489.666C1398.17 489.666 1391.69 492.598 1386.75 498.461C1381.97 504.325 1379.58 512.194 1379.58 522.069C1379.58 532.098 1381.97 539.967 1386.75 545.676C1391.69 551.231 1398.25 554.009 1406.43 554.009ZM1580.37 590.114C1558 590.114 1540.64 585.408 1528.29 575.996C1515.95 566.43 1509.47 552.851 1508.85 535.261H1541.72C1542.8 545.136 1546.27 552.234 1552.13 556.554C1558.15 560.875 1567.1 563.035 1578.98 563.035C1588.39 563.035 1596.11 561.338 1602.12 557.943C1608.14 554.394 1611.15 548.994 1611.15 541.742C1611.15 539.119 1610.77 536.804 1609.99 534.798C1609.38 532.638 1607.99 530.787 1605.83 529.244C1603.67 527.546 1601.82 526.235 1600.27 525.309C1598.73 524.229 1595.88 523.149 1591.71 522.069C1587.54 520.834 1584.38 519.986 1582.22 519.523C1580.06 518.906 1576.05 517.903 1570.19 516.514C1563.09 514.817 1557.22 513.351 1552.6 512.117C1548.12 510.882 1543.11 508.953 1537.55 506.33C1532.15 503.707 1527.83 500.853 1524.59 497.767C1521.5 494.527 1518.88 490.361 1516.72 485.269C1514.56 480.023 1513.48 474.082 1513.48 467.447C1513.48 451.555 1519.27 439.365 1530.84 430.879C1542.57 422.238 1557.92 417.918 1576.9 417.918C1595.72 417.918 1610.77 422.392 1622.03 431.342C1633.29 440.291 1639.54 453.02 1640.78 469.53H1608.61C1607.68 461.507 1604.29 455.335 1598.42 451.015C1592.71 446.694 1585.46 444.534 1576.67 444.534C1567.56 444.534 1560.31 446.308 1554.91 449.857C1549.51 453.406 1546.81 458.112 1546.81 463.976C1546.81 470.302 1549.43 474.931 1554.68 477.862C1560.08 480.794 1569.49 483.726 1582.91 486.657C1590.94 488.355 1597.5 489.975 1602.59 491.518C1607.68 492.906 1613.16 494.99 1619.02 497.767C1625.04 500.39 1629.67 503.322 1632.91 506.562C1636.3 509.802 1639.08 514.122 1641.24 519.523C1643.55 524.769 1644.71 530.864 1644.71 537.807C1644.71 554.163 1638.77 566.97 1626.89 576.227C1615.01 585.485 1599.5 590.114 1580.37 590.114ZM1649.51 488.509V467.679H1665.94V430.647H1696.72V467.679H1717.09V488.509H1696.72V551.463C1696.72 559.332 1700.66 563.266 1708.53 563.266L1717.78 563.035V586.18C1713 586.488 1706.44 586.643 1698.11 586.643C1689.01 586.643 1681.37 584.482 1675.2 580.162C1669.03 575.687 1665.94 568.358 1665.94 558.175V488.509H1649.51ZM1758.99 467.679V486.657H1759.68C1763.39 479.714 1767.47 474.622 1771.95 471.382C1776.42 467.987 1782.06 466.29 1788.84 466.29C1792.09 466.29 1794.55 466.599 1796.25 467.216V494.758H1795.56C1784.91 493.678 1776.35 495.992 1769.87 501.701C1763.39 507.411 1760.15 516.36 1760.15 528.549V586.411H1728.67V467.679H1758.99ZM1876.55 586.411C1875.01 584.405 1873.77 580.008 1872.85 573.219H1872.38C1868.99 578.31 1864.67 582.245 1859.42 585.022C1854.18 587.8 1846.85 589.188 1837.43 589.188C1824.94 589.188 1814.91 586.025 1807.35 579.699C1799.79 573.373 1796.01 564.424 1796.01 552.851C1796.01 540.816 1800.17 532.021 1808.5 526.466C1816.84 520.757 1828.56 516.823 1843.68 514.663C1854.79 513.12 1862.35 511.577 1866.37 510.034C1870.38 508.336 1872.38 505.405 1872.38 501.239C1872.38 496.918 1870.69 493.524 1867.29 491.055C1863.9 488.432 1858.96 487.12 1852.48 487.12C1838.13 487.12 1830.49 492.675 1829.56 503.785H1801.56C1802.02 492.521 1806.57 483.186 1815.22 475.779C1823.86 468.373 1836.35 464.67 1852.71 464.67C1886.04 464.67 1902.7 479.251 1902.7 508.413V568.821C1902.7 577.77 1904.09 583.248 1906.87 585.254V586.411H1876.55ZM1845.07 567.201C1853.71 567.201 1860.5 564.964 1865.44 560.489C1870.53 556.014 1873.08 550.691 1873.08 544.519V526.698C1869.68 528.704 1862.35 531.018 1851.09 533.641C1842.14 535.647 1835.81 537.962 1832.11 540.585C1828.41 543.053 1826.56 546.911 1826.56 552.157C1826.56 562.186 1832.73 567.201 1845.07 567.201ZM1908.88 488.509V467.679H1925.31V430.647H1956.1V467.679H1976.46V488.509H1956.1V551.463C1956.1 559.332 1960.03 563.266 1967.9 563.266L1977.16 563.035V586.18C1972.37 586.488 1965.82 586.643 1957.48 586.643C1948.38 586.643 1940.74 584.482 1934.57 580.162C1928.4 575.687 1925.31 568.358 1925.31 558.175V488.509H1908.88ZM2042.69 589.883C2023.56 589.883 2008.51 584.02 1997.56 572.293C1986.6 560.412 1981.13 545.291 1981.13 526.929C1981.13 509.185 1986.6 494.372 1997.56 482.491C2008.51 470.456 2022.56 464.439 2039.68 464.439C2058.35 464.439 2072.78 470.919 2082.96 483.88C2093.15 496.841 2098.24 514.2 2098.24 535.956H2012.14C2013.38 545.368 2016.54 552.697 2021.63 557.943C2026.72 563.035 2033.67 565.581 2042.46 565.581C2054.03 565.581 2061.67 560.721 2065.37 551H2096.39C2094.07 562.109 2088.21 571.367 2078.8 578.773C2069.39 586.18 2057.35 589.883 2042.69 589.883ZM2040.15 488.74C2024.87 488.74 2015.69 497.227 2012.6 514.2H2065.37C2064.91 506.639 2062.36 500.544 2057.74 495.915C2053.11 491.132 2047.24 488.74 2040.15 488.74ZM2160.49 626.914C2144.44 626.914 2131.55 623.674 2121.83 617.194C2112.27 610.713 2106.64 601.609 2104.94 589.883H2136.18C2139.27 598.678 2147.22 603.075 2160.02 603.075C2177.61 603.075 2186.41 594.82 2186.41 578.31V565.349H2185.71C2177.54 574.607 2167.2 579.236 2154.7 579.236C2140.66 579.236 2128.39 574.067 2117.9 563.729C2107.56 553.391 2102.39 539.659 2102.39 522.532C2102.39 504.942 2107.18 490.901 2116.74 480.408C2126.31 469.762 2138.65 464.439 2153.77 464.439C2168.12 464.439 2179.08 469.685 2186.64 480.177H2187.1V467.679H2217.42V577.385C2217.42 592.815 2212.72 604.85 2203.3 613.49C2193.74 622.44 2179.46 626.914 2160.49 626.914ZM2160.02 554.009C2169.43 554.009 2176.46 551 2181.08 544.982C2185.71 538.964 2188.03 531.25 2188.03 521.837C2188.03 512.58 2185.56 504.942 2180.62 498.924C2175.84 492.752 2168.89 489.666 2159.79 489.666C2151.77 489.666 2145.29 492.598 2140.35 498.461C2135.57 504.325 2133.17 512.194 2133.17 522.069C2133.17 532.098 2135.57 539.967 2140.35 545.676C2145.29 551.231 2151.84 554.009 2160.02 554.009ZM2235.61 625.294V600.529H2246.72C2258.44 600.529 2264.31 595.129 2264.31 584.328C2264.31 579.082 2261.3 568.358 2255.28 552.157L2223.34 467.679H2256.44L2274.03 521.143L2281.66 547.065H2282.13C2284.29 537.036 2286.6 528.395 2289.07 521.143L2305.74 467.679H2337.44L2296.01 589.42C2291.39 602.998 2286.14 612.333 2280.28 617.425C2274.57 622.671 2265.85 625.294 2254.12 625.294H2235.61Z" fill="#0F0F0F"/>
</svg>
