<svg width="1601" height="745" viewBox="0 0 1601 745" fill="none" xmlns="http://www.w3.org/2000/svg">
<path d="M707.651 354.422C707.651 372.175 693.259 386.567 675.506 386.567C657.753 386.567 643.361 372.175 643.361 354.422L643.361 110.117C643.361 92.3632 657.753 77.9712 675.506 77.9712C693.259 77.9712 707.651 92.3632 707.651 110.117L707.651 354.422Z" fill="#6C6C6C"/>
<path d="M894.095 32.9677C894.095 15.2143 908.487 0.822269 926.24 0.822266C943.994 0.822263 958.386 15.2142 958.386 32.9677L958.386 277.273C958.386 295.026 943.994 309.418 926.24 309.418C908.487 309.418 894.095 295.026 894.095 277.273L894.095 32.9677Z" fill="#6C6C6C"/>
<path d="M791.23 200.124C791.23 217.877 776.838 232.269 759.084 232.269C741.331 232.269 726.939 217.877 726.939 200.124L726.939 110.117C726.939 92.3632 741.331 77.9712 759.084 77.9712C776.838 77.9712 791.23 92.3632 791.23 110.117L791.23 200.124Z" fill="#939393"/>
<path d="M810.517 187.266C810.517 169.512 824.909 155.12 842.662 155.12C860.416 155.12 874.808 169.512 874.808 187.266L874.808 277.273C874.808 295.026 860.416 309.418 842.662 309.418C824.909 309.418 810.517 295.026 810.517 277.273L810.517 187.266Z" fill="#939393"/>
<path d="M5.28122 527.752V499.516H138.363V527.752H88.6022V665H55.0424V527.752H5.28122ZM162.206 546.268V565.247H162.9C166.603 558.303 170.692 553.211 175.167 549.971C179.642 546.576 185.274 544.879 192.063 544.879C195.303 544.879 197.772 545.188 199.469 545.805V573.347H198.775C188.128 572.267 179.565 574.582 173.084 580.291C166.603 586 163.363 594.949 163.363 607.138V665H131.886V546.268H162.206ZM279.767 665C278.224 662.994 276.989 658.597 276.064 651.808H275.601C272.206 656.9 267.886 660.834 262.64 663.612C257.393 666.389 250.064 667.778 240.652 667.778C228.154 667.778 218.125 664.614 210.564 658.288C203.003 651.962 199.223 643.013 199.223 631.44C199.223 619.405 203.389 610.61 211.721 605.055C220.053 599.346 231.78 595.412 246.901 593.252C258.011 591.709 265.571 590.166 269.583 588.623C273.595 586.925 275.601 583.994 275.601 579.828C275.601 575.507 273.903 572.113 270.509 569.644C267.114 567.021 262.177 565.709 255.696 565.709C241.346 565.709 233.709 571.264 232.783 582.374H204.778C205.241 571.11 209.792 561.775 218.433 554.369C227.074 546.962 239.572 543.259 255.928 543.259C289.256 543.259 305.92 557.84 305.92 587.003V647.41C305.92 656.36 307.309 661.837 310.086 663.843V665H279.767ZM248.29 645.79C256.931 645.79 263.72 643.553 268.657 639.078C273.749 634.604 276.295 629.28 276.295 623.108V605.287C272.9 607.293 265.571 609.607 254.307 612.23C245.358 614.236 239.032 616.551 235.329 619.174C231.626 621.642 229.774 625.5 229.774 630.746C229.774 640.775 235.946 645.79 248.29 645.79ZM365.74 668.472C350.773 668.472 338.661 662.84 329.403 651.576C320.145 640.158 315.516 624.883 315.516 605.75C315.516 587.234 320.222 572.19 329.634 560.618C339.201 548.891 351.39 543.028 366.203 543.028C381.016 543.028 392.202 548.891 399.763 560.618H400.457V499.516H431.934V665H401.615V649.493H401.152C393.437 662.146 381.633 668.472 365.74 668.472ZM372.684 642.087C381.942 642.087 388.962 638.924 393.745 632.598C398.683 626.271 401.152 617.554 401.152 606.444C401.152 581.139 391.971 568.487 373.609 568.487C365.123 568.487 358.642 571.881 354.168 578.67C349.693 585.46 347.456 594.486 347.456 605.75C347.456 617.322 349.616 626.271 353.936 632.598C358.411 638.924 364.66 642.087 372.684 642.087ZM447.766 665V546.268H479.243V665H447.766ZM447.766 527.752V499.516H479.243V527.752H447.766ZM525.679 546.268V562.469H526.374C534.551 549.508 546.278 543.028 561.554 543.028C573.743 543.028 583.618 547.194 591.179 555.526C598.739 563.704 602.52 574.35 602.52 587.465V665H571.043V592.094C571.043 585.614 569.191 580.368 565.488 576.356C561.939 572.344 556.925 570.338 550.444 570.338C543.501 570.338 537.714 572.884 533.086 577.976C528.611 583.068 526.374 589.626 526.374 597.649V665H494.897V546.268H525.679ZM669.6 705.503C653.553 705.503 640.669 702.263 630.948 695.783C621.381 689.302 615.75 680.199 614.052 668.472H645.298C648.384 677.267 656.33 681.664 669.137 681.664C686.727 681.664 695.522 673.409 695.522 656.9V643.939H694.827C686.649 653.196 676.312 657.825 663.813 657.825C649.772 657.825 637.506 652.656 627.013 642.318C616.675 631.98 611.506 618.248 611.506 601.121C611.506 583.531 616.29 569.49 625.856 558.997C635.423 548.351 647.766 543.028 662.888 543.028C677.237 543.028 688.192 548.274 695.753 558.766H696.216V546.268H726.536V655.974C726.536 671.404 721.829 683.439 712.417 692.08C702.851 701.029 688.578 705.503 669.6 705.503ZM669.137 632.598C678.549 632.598 685.569 629.589 690.198 623.571C694.827 617.554 697.142 609.839 697.142 600.426C697.142 591.169 694.673 583.531 689.735 577.513C684.952 571.341 678.009 568.255 668.905 568.255C660.882 568.255 654.401 571.187 649.464 577.05C644.68 582.914 642.289 590.783 642.289 600.658C642.289 610.687 644.68 618.557 649.464 624.266C654.401 629.82 660.959 632.598 669.137 632.598ZM843.078 668.703C820.705 668.703 803.346 663.997 791.003 654.585C778.659 645.019 772.178 631.44 771.561 613.85H804.427C805.507 623.726 808.978 630.823 814.842 635.144C820.859 639.464 829.809 641.624 841.689 641.624C851.102 641.624 858.817 639.927 864.834 636.532C870.852 632.983 873.861 627.583 873.861 620.331C873.861 617.708 873.475 615.393 872.703 613.388C872.086 611.227 870.698 609.376 868.537 607.833C866.377 606.136 864.526 604.824 862.983 603.898C861.44 602.818 858.585 601.738 854.419 600.658C850.253 599.424 847.09 598.575 844.93 598.112C842.77 597.495 838.758 596.492 832.895 595.103C825.797 593.406 819.933 591.94 815.305 590.706C810.83 589.471 805.815 587.543 800.26 584.92C794.86 582.296 790.54 579.442 787.299 576.356C784.213 573.116 781.59 568.95 779.43 563.858C777.27 558.612 776.19 552.671 776.19 546.036C776.19 530.144 781.976 517.954 793.548 509.468C805.275 500.827 820.628 496.507 839.606 496.507C858.431 496.507 873.475 500.981 884.739 509.931C896.002 518.88 902.251 531.61 903.486 548.119H871.315C870.389 540.096 866.994 533.924 861.131 529.604C855.422 525.283 848.17 523.123 839.375 523.123C830.271 523.123 823.019 524.898 817.619 528.446C812.219 531.995 809.518 536.701 809.518 542.565C809.518 548.891 812.141 553.52 817.388 556.452C822.788 559.383 832.2 562.315 845.624 565.247C853.648 566.944 860.205 568.564 865.297 570.107C870.389 571.496 875.867 573.579 881.73 576.356C887.747 578.979 892.376 581.911 895.617 585.151C899.011 588.391 901.789 592.712 903.949 598.112C906.263 603.358 907.42 609.453 907.42 616.396C907.42 632.752 901.48 645.559 889.599 654.817C877.718 664.074 862.211 668.703 843.078 668.703ZM912.216 567.098V546.268H928.649V509.236H959.431V546.268H979.798V567.098H959.431V630.052C959.431 637.921 963.366 641.856 971.235 641.856L980.493 641.624V664.769C975.709 665.077 969.152 665.232 960.82 665.232C951.716 665.232 944.078 663.072 937.906 658.751C931.734 654.277 928.649 646.947 928.649 636.764V567.098H912.216ZM1021.7 546.268V565.247H1022.39C1026.1 558.303 1030.18 553.211 1034.66 549.971C1039.13 546.576 1044.77 544.879 1051.55 544.879C1054.79 544.879 1057.26 545.188 1058.96 545.805V573.347H1058.27C1047.62 572.267 1039.06 574.582 1032.58 580.291C1026.1 586 1022.85 594.949 1022.85 607.138V665H991.378V546.268H1021.7ZM1139.26 665C1137.72 662.994 1136.48 658.597 1135.55 651.808H1135.09C1131.7 656.9 1127.38 660.834 1122.13 663.612C1116.88 666.389 1109.56 667.778 1100.14 667.778C1087.65 667.778 1077.62 664.614 1070.06 658.288C1062.49 651.962 1058.71 643.013 1058.71 631.44C1058.71 619.405 1062.88 610.61 1071.21 605.055C1079.54 599.346 1091.27 595.412 1106.39 593.252C1117.5 591.709 1125.06 590.166 1129.07 588.623C1133.09 586.925 1135.09 583.994 1135.09 579.828C1135.09 575.507 1133.39 572.113 1130 569.644C1126.61 567.021 1121.67 565.709 1115.19 565.709C1100.84 565.709 1093.2 571.264 1092.27 582.374H1064.27C1064.73 571.11 1069.28 561.775 1077.92 554.369C1086.57 546.962 1099.06 543.259 1115.42 543.259C1148.75 543.259 1165.41 557.84 1165.41 587.003V647.41C1165.41 656.36 1166.8 661.837 1169.58 663.843V665H1139.26ZM1107.78 645.79C1116.42 645.79 1123.21 643.553 1128.15 639.078C1133.24 634.604 1135.79 629.28 1135.79 623.108V605.287C1132.39 607.293 1125.06 609.607 1113.8 612.23C1104.85 614.236 1098.52 616.551 1094.82 619.174C1091.12 621.642 1089.27 625.5 1089.27 630.746C1089.27 640.775 1095.44 645.79 1107.78 645.79ZM1171.59 567.098V546.268H1188.02V509.236H1218.81V546.268H1239.17V567.098H1218.81V630.052C1218.81 637.921 1222.74 641.856 1230.61 641.856L1239.87 641.624V664.769C1235.08 665.077 1228.53 665.232 1220.19 665.232C1211.09 665.232 1203.45 663.072 1197.28 658.751C1191.11 654.277 1188.02 646.947 1188.02 636.764V567.098H1171.59ZM1305.4 668.472C1286.27 668.472 1271.22 662.609 1260.27 650.882C1249.31 639.001 1243.84 623.88 1243.84 605.518C1243.84 587.774 1249.31 572.961 1260.27 561.08C1271.22 549.045 1285.27 543.028 1302.39 543.028C1321.06 543.028 1335.49 549.508 1345.67 562.469C1355.86 575.43 1360.95 592.789 1360.95 614.545H1274.85C1276.08 623.957 1279.25 631.286 1284.34 636.532C1289.43 641.624 1296.37 644.17 1305.17 644.17C1316.74 644.17 1324.38 639.31 1328.08 629.589H1359.1C1356.78 640.698 1350.92 649.956 1341.51 657.362C1332.09 664.769 1320.06 668.472 1305.4 668.472ZM1302.86 567.33C1287.58 567.33 1278.4 575.816 1275.31 592.789H1328.08C1327.62 585.228 1325.07 579.133 1320.45 574.504C1315.82 569.721 1309.95 567.33 1302.86 567.33ZM1423.19 705.503C1407.15 705.503 1394.26 702.263 1384.54 695.783C1374.98 689.302 1369.34 680.199 1367.65 668.472H1398.89C1401.98 677.267 1409.93 681.664 1422.73 681.664C1440.32 681.664 1449.12 673.409 1449.12 656.9V643.939H1448.42C1440.24 653.196 1429.91 657.825 1417.41 657.825C1403.37 657.825 1391.1 652.656 1380.61 642.318C1370.27 631.98 1365.1 618.248 1365.1 601.121C1365.1 583.531 1369.88 569.49 1379.45 558.997C1389.02 548.351 1401.36 543.028 1416.48 543.028C1430.83 543.028 1441.79 548.274 1449.35 558.766H1449.81V546.268H1480.13V655.974C1480.13 671.404 1475.42 683.439 1466.01 692.08C1456.45 701.029 1442.17 705.503 1423.19 705.503ZM1422.73 632.598C1432.14 632.598 1439.16 629.589 1443.79 623.571C1448.42 617.554 1450.74 609.839 1450.74 600.426C1450.74 591.169 1448.27 583.531 1443.33 577.513C1438.55 571.341 1431.6 568.255 1422.5 568.255C1414.48 568.255 1408 571.187 1403.06 577.05C1398.28 582.914 1395.88 590.783 1395.88 600.658C1395.88 610.687 1398.28 618.557 1403.06 624.266C1408 629.82 1414.55 632.598 1422.73 632.598ZM1498.32 703.883V679.119H1509.43C1521.15 679.119 1527.02 673.718 1527.02 662.917C1527.02 657.671 1524.01 646.947 1517.99 630.746L1486.05 546.268H1519.15L1536.74 599.732L1544.37 625.654H1544.84C1547 615.625 1549.31 606.984 1551.78 599.732L1568.44 546.268H1600.15L1558.72 668.009C1554.09 681.587 1548.85 690.922 1542.99 696.014C1537.28 701.26 1528.56 703.883 1516.83 703.883H1498.32Z" fill="#0F0F0F"/>
</svg>
